#N canvas -11 -11 1920 971 12;
#X obj 45 45 inlet;
#X obj 45 74 b;
#X text 44 25 trigger;
#X obj 303 40 inlet;
#X text 302 20 list;
#X obj 528 40 inlet;
#X obj 528 69 b;
#X text 527 20 reset;
#X obj 45 216 f;
#X obj 80 216 + 1;
#X obj 45 245 t f f;
#X obj 77 278 sel;
#X obj 195 45 inlet;
#X text 156 24 steplength;
#X obj 125 103 - 1;
#X msg 77 307 0;
#X obj 125 161 t b f;
#X obj 125 132 expr if($f1<0 \, 0 \, $f1);
#N canvas -11 -11 1920 971 sequencer 0;
#X obj 33 100 sel 0 1 2 3 4 5 6 7 8 9 10 11 12 13 14 15;
#N canvas -11 -11 1920 971 step0 0;
#X obj 28 55 random 100;
#X obj 28 112 <;
#X obj 28 141 sel 1;
#X obj 28 197 f;
#X obj 46 84 r \$0p0;
#X obj 46 170 r \$0i0;
#X obj 28 26 inlet;
#X obj 28 226 s \$0output;
#X connect 0 0 1 0;
#X connect 1 0 2 0;
#X connect 2 0 3 0;
#X connect 3 0 7 0;
#X connect 4 0 1 1;
#X connect 5 0 3 1;
#X connect 6 0 0 0;
#X restore 33 562 pd step0;
#X obj 33 71 inlet;
#N canvas -11 -11 1920 971 step1 0;
#X obj 28 55 random 100;
#X obj 28 112 <;
#X obj 28 141 sel 1;
#X obj 28 197 f;
#X obj 28 26 inlet;
#X obj 46 84 r \$0p1;
#X obj 46 170 r \$0i1;
#X obj 28 226 s \$0output;
#X connect 0 0 1 0;
#X connect 1 0 2 0;
#X connect 2 0 3 0;
#X connect 3 0 7 0;
#X connect 4 0 0 0;
#X connect 5 0 1 1;
#X connect 6 0 3 1;
#X restore 50 533 pd step1;
#N canvas -11 -11 1920 971 step2 0;
#X obj 28 55 random 100;
#X obj 28 112 <;
#X obj 28 141 sel 1;
#X obj 28 197 f;
#X obj 28 26 inlet;
#X obj 46 84 r \$0p2;
#X obj 46 170 r \$0i2;
#X obj 28 226 s \$0output;
#X connect 0 0 1 0;
#X connect 1 0 2 0;
#X connect 2 0 3 0;
#X connect 3 0 7 0;
#X connect 4 0 0 0;
#X connect 5 0 1 1;
#X connect 6 0 3 1;
#X restore 68 504 pd step2;
#N canvas -11 -11 1920 971 step3 0;
#X obj 28 55 random 100;
#X obj 28 112 <;
#X obj 28 141 sel 1;
#X obj 28 197 f;
#X obj 28 26 inlet;
#X obj 46 84 r \$0p3;
#X obj 46 170 r \$0i3;
#X obj 28 226 s \$0output;
#X connect 0 0 1 0;
#X connect 1 0 2 0;
#X connect 2 0 3 0;
#X connect 3 0 7 0;
#X connect 4 0 0 0;
#X connect 5 0 1 1;
#X connect 6 0 3 1;
#X restore 86 475 pd step3;
#N canvas -11 -11 1920 971 step4 0;
#X obj 28 55 random 100;
#X obj 28 112 <;
#X obj 28 141 sel 1;
#X obj 28 197 f;
#X obj 28 26 inlet;
#X obj 46 84 r \$0p4;
#X obj 46 170 r \$0i4;
#X obj 28 226 s \$0output;
#X connect 0 0 1 0;
#X connect 1 0 2 0;
#X connect 2 0 3 0;
#X connect 3 0 7 0;
#X connect 4 0 0 0;
#X connect 5 0 1 1;
#X connect 6 0 3 1;
#X restore 104 446 pd step4;
#N canvas -11 -11 1920 971 step5 0;
#X obj 28 55 random 100;
#X obj 28 112 <;
#X obj 28 141 sel 1;
#X obj 28 197 f;
#X obj 28 26 inlet;
#X obj 46 84 r \$0p5;
#X obj 46 170 r \$0i5;
#X obj 28 226 s \$0output;
#X connect 0 0 1 0;
#X connect 1 0 2 0;
#X connect 2 0 3 0;
#X connect 3 0 7 0;
#X connect 4 0 0 0;
#X connect 5 0 1 1;
#X connect 6 0 3 1;
#X restore 121 417 pd step5;
#N canvas -11 -11 1920 971 step6 0;
#X obj 28 55 random 100;
#X obj 28 112 <;
#X obj 28 141 sel 1;
#X obj 28 197 f;
#X obj 28 26 inlet;
#X obj 46 84 r \$0p6;
#X obj 46 170 r \$0i6;
#X obj 28 226 s \$0output;
#X connect 0 0 1 0;
#X connect 1 0 2 0;
#X connect 2 0 3 0;
#X connect 3 0 7 0;
#X connect 4 0 0 0;
#X connect 5 0 1 1;
#X connect 6 0 3 1;
#X restore 139 388 pd step6;
#N canvas -11 -11 1920 971 step7 0;
#X obj 28 55 random 100;
#X obj 28 112 <;
#X obj 28 141 sel 1;
#X obj 28 197 f;
#X obj 28 26 inlet;
#X obj 46 84 r \$0p7;
#X obj 46 170 r \$0i7;
#X obj 28 226 s \$0output;
#X connect 0 0 1 0;
#X connect 1 0 2 0;
#X connect 2 0 3 0;
#X connect 3 0 7 0;
#X connect 4 0 0 0;
#X connect 5 0 1 1;
#X connect 6 0 3 1;
#X restore 157 359 pd step7;
#N canvas -11 -11 1920 971 step8 0;
#X obj 28 55 random 100;
#X obj 28 112 <;
#X obj 28 141 sel 1;
#X obj 28 197 f;
#X obj 28 26 inlet;
#X obj 46 84 r \$0p8;
#X obj 46 170 r \$0i8;
#X obj 28 226 s \$0output;
#X connect 0 0 1 0;
#X connect 1 0 2 0;
#X connect 2 0 3 0;
#X connect 3 0 7 0;
#X connect 4 0 0 0;
#X connect 5 0 1 1;
#X connect 6 0 3 1;
#X restore 175 332 pd step8;
#N canvas -11 -11 1920 971 step9 0;
#X obj 28 55 random 100;
#X obj 28 112 <;
#X obj 28 141 sel 1;
#X obj 28 197 f;
#X obj 28 26 inlet;
#X obj 46 84 r \$0p9;
#X obj 46 170 r \$0i9;
#X obj 28 226 s \$0output;
#X connect 0 0 1 0;
#X connect 1 0 2 0;
#X connect 2 0 3 0;
#X connect 3 0 7 0;
#X connect 4 0 0 0;
#X connect 5 0 1 1;
#X connect 6 0 3 1;
#X restore 192 303 pd step9;
#N canvas -11 -11 1920 971 step10 0;
#X obj 28 55 random 100;
#X obj 28 112 <;
#X obj 28 141 sel 1;
#X obj 28 197 f;
#X obj 28 26 inlet;
#X obj 46 84 r \$0p10;
#X obj 46 170 r \$0i10;
#X obj 28 226 s \$0output;
#X connect 0 0 1 0;
#X connect 1 0 2 0;
#X connect 2 0 3 0;
#X connect 3 0 7 0;
#X connect 4 0 0 0;
#X connect 5 0 1 1;
#X connect 6 0 3 1;
#X restore 210 274 pd step10;
#N canvas -11 -11 1920 971 step11 0;
#X obj 28 55 random 100;
#X obj 28 112 <;
#X obj 28 141 sel 1;
#X obj 28 197 f;
#X obj 28 26 inlet;
#X obj 28 226 s \$0output;
#X obj 46 170 r \$0i11;
#X obj 46 84 r \$0p11;
#X connect 0 0 1 0;
#X connect 1 0 2 0;
#X connect 2 0 3 0;
#X connect 3 0 5 0;
#X connect 4 0 0 0;
#X connect 6 0 3 1;
#X connect 7 0 1 1;
#X restore 228 245 pd step11;
#N canvas -11 -11 1920 971 step12 0;
#X obj 28 55 random 100;
#X obj 28 112 <;
#X obj 28 141 sel 1;
#X obj 28 197 f;
#X obj 28 26 inlet;
#X obj 46 170 r \$0i12;
#X obj 46 84 r \$0p12;
#X obj 28 226 s \$0output;
#X connect 0 0 1 0;
#X connect 1 0 2 0;
#X connect 2 0 3 0;
#X connect 3 0 7 0;
#X connect 4 0 0 0;
#X connect 5 0 3 1;
#X connect 6 0 1 1;
#X restore 246 216 pd step12;
#N canvas -11 -11 1920 971 step13 0;
#X obj 28 55 random 100;
#X obj 28 112 <;
#X obj 28 141 sel 1;
#X obj 28 197 f;
#X obj 28 26 inlet;
#X obj 28 226 s \$0output;
#X obj 46 170 r \$0i13;
#X obj 46 84 r \$0p13;
#X connect 0 0 1 0;
#X connect 1 0 2 0;
#X connect 2 0 3 0;
#X connect 3 0 5 0;
#X connect 4 0 0 0;
#X connect 6 0 3 1;
#X connect 7 0 1 1;
#X restore 263 187 pd step13;
#N canvas -11 -11 1920 971 step14 0;
#X obj 28 55 random 100;
#X obj 28 112 <;
#X obj 28 141 sel 1;
#X obj 28 197 f;
#X obj 28 26 inlet;
#X obj 28 226 s \$0output;
#X obj 46 170 r \$0i14;
#X obj 46 84 r \$0p14;
#X connect 0 0 1 0;
#X connect 1 0 2 0;
#X connect 2 0 3 0;
#X connect 3 0 5 0;
#X connect 4 0 0 0;
#X connect 6 0 3 1;
#X connect 7 0 1 1;
#X restore 281 158 pd step14;
#N canvas -11 -11 1920 971 step15 0;
#X obj 28 55 random 100;
#X obj 28 112 <;
#X obj 28 141 sel 1;
#X obj 28 197 f;
#X obj 28 26 inlet;
#X obj 28 226 s \$0output;
#X obj 46 170 r \$0i15;
#X obj 46 84 r \$0p15;
#X connect 0 0 1 0;
#X connect 1 0 2 0;
#X connect 2 0 3 0;
#X connect 3 0 5 0;
#X connect 4 0 0 0;
#X connect 6 0 3 1;
#X connect 7 0 1 1;
#X restore 299 129 pd step15;
#X text 32 20 Trigger numbers in the list based on the probability
percentage.;
#X connect 0 0 1 0;
#X connect 0 1 3 0;
#X connect 0 2 4 0;
#X connect 0 3 5 0;
#X connect 0 4 6 0;
#X connect 0 5 7 0;
#X connect 0 6 8 0;
#X connect 0 7 9 0;
#X connect 0 8 10 0;
#X connect 0 9 11 0;
#X connect 0 10 12 0;
#X connect 0 11 13 0;
#X connect 0 12 14 0;
#X connect 0 13 15 0;
#X connect 0 14 16 0;
#X connect 0 15 17 0;
#X connect 2 0 0 0;
#X restore 45 336 pd sequencer;
#N canvas -11 -11 1920 971 list 0;
#X obj 33 21 inlet;
#X obj 33 50 unpack f f f f f f f f f f f f f f f f;
#X obj 33 512 s \$0i0;
#X obj 50 483 s \$0i1;
#X obj 68 454 s \$0i2;
#X obj 85 425 s \$0i3;
#X obj 103 396 s \$0i4;
#X obj 120 367 s \$0i5;
#X obj 138 338 s \$0i6;
#X obj 156 309 s \$0i7;
#X obj 173 282 s \$0i8;
#X obj 190 253 s \$0i9;
#X obj 208 224 s \$0i10;
#X obj 225 196 s \$0i11;
#X obj 243 166 s \$0i12;
#X obj 260 137 s \$0i13;
#X obj 278 108 s \$0i14;
#X obj 296 79 s \$0i15;
#X connect 0 0 1 0;
#X connect 1 0 2 0;
#X connect 1 1 3 0;
#X connect 1 2 4 0;
#X connect 1 3 5 0;
#X connect 1 4 6 0;
#X connect 1 5 7 0;
#X connect 1 6 8 0;
#X connect 1 7 9 0;
#X connect 1 8 10 0;
#X connect 1 9 11 0;
#X connect 1 10 12 0;
#X connect 1 11 13 0;
#X connect 1 12 14 0;
#X connect 1 13 15 0;
#X connect 1 14 16 0;
#X connect 1 15 17 0;
#X restore 303 69 pd list;
#X obj 171 307 r \$0output;
#X obj 171 336 outlet;
#X obj 403 40 inlet;
#X text 402 20 probability;
#N canvas -11 -11 1920 971 prob 0;
#X obj 33 21 inlet;
#X obj 33 50 unpack f f f f f f f f f f f f f f f f;
#X obj 33 969 s \$0p0;
#X obj 50 911 s \$0p1;
#X obj 33 940 clip 0 100;
#X obj 50 883 clip 0 100;
#X obj 68 825 clip 0 100;
#X obj 85 768 clip 0 100;
#X obj 103 710 clip 0 100;
#X obj 120 653 clip 0 100;
#X obj 138 595 clip 0 100;
#X obj 155 538 clip 0 100;
#X obj 173 480 clip 0 100;
#X obj 190 423 clip 0 100;
#X obj 208 365 clip 0 100;
#X obj 225 308 clip 0 100;
#X obj 243 250 clip 0 100;
#X obj 260 193 clip 0 100;
#X obj 278 135 clip 0 100;
#X obj 296 78 clip 0 100;
#X obj 68 854 s \$0p2;
#X obj 85 796 s \$0p3;
#X obj 103 739 s \$0p4;
#X obj 120 681 s \$0p5;
#X obj 138 624 s \$0p6;
#X obj 155 566 s \$0p7;
#X obj 173 509 s \$0p8;
#X obj 190 451 s \$0p9;
#X obj 208 394 s \$0p10;
#X obj 225 336 s \$0p11;
#X obj 243 279 s \$0p12;
#X obj 260 221 s \$0p13;
#X obj 278 164 s \$0p14;
#X obj 296 106 s \$0p15;
#X connect 0 0 1 0;
#X connect 1 0 4 0;
#X connect 1 1 5 0;
#X connect 1 2 6 0;
#X connect 1 3 7 0;
#X connect 1 4 8 0;
#X connect 1 5 9 0;
#X connect 1 6 10 0;
#X connect 1 7 11 0;
#X connect 1 8 12 0;
#X connect 1 9 13 0;
#X connect 1 10 14 0;
#X connect 1 11 15 0;
#X connect 1 12 16 0;
#X connect 1 13 17 0;
#X connect 1 14 18 0;
#X connect 1 15 19 0;
#X connect 4 0 2 0;
#X connect 5 0 3 0;
#X connect 6 0 20 0;
#X connect 7 0 21 0;
#X connect 8 0 22 0;
#X connect 9 0 23 0;
#X connect 10 0 24 0;
#X connect 11 0 25 0;
#X connect 12 0 26 0;
#X connect 13 0 27 0;
#X connect 14 0 28 0;
#X connect 15 0 29 0;
#X connect 16 0 30 0;
#X connect 17 0 31 0;
#X connect 18 0 32 0;
#X connect 19 0 33 0;
#X restore 403 69 pd prob;
#X msg 528 98 0;
#X text 38 386 Eito Murakami - 16seq (06/22/21);
#X obj 125 45 loadbang;
#X obj 125 74 i \$1;
#X obj 608 40 inlet;
#X text 607 20 index;
#X obj 608 69 i;
#X obj 608 98 clip 0 15;
#X text 35 411 (16-step conditional sequencer);
#X connect 0 0 1 0;
#X connect 1 0 8 0;
#X connect 3 0 19 0;
#X connect 5 0 6 0;
#X connect 6 0 25 0;
#X connect 8 0 9 0;
#X connect 8 0 10 0;
#X connect 9 0 8 1;
#X connect 10 0 18 0;
#X connect 10 1 11 0;
#X connect 11 0 15 0;
#X connect 12 0 28 0;
#X connect 14 0 17 0;
#X connect 15 0 8 1;
#X connect 16 0 15 0;
#X connect 16 1 11 1;
#X connect 17 0 16 0;
#X connect 20 0 21 0;
#X connect 22 0 24 0;
#X connect 25 0 8 1;
#X connect 27 0 28 0;
#X connect 28 0 14 0;
#X connect 29 0 31 0;
#X connect 31 0 32 0;
#X connect 32 0 18 0;
