#N canvas -11 -11 1920 970 12;
#X obj 153 146 clip~ 0 20000;
#X obj 153 212 expr~ 1-$v1;
#X obj 62 343 outlet~;
#X obj 62 81 inlet~;
#X obj 153 82 inlet~;
#X text 59 59 audio in;
#N canvas -11 -11 1920 970 LPF 0;
#X obj 229 59 inlet~;
#X obj 345 59 inlet~;
#X text 227 37 audio in;
#X text 328 38 coefficients;
#X text 464 38 gain;
#X obj 459 59 inlet~;
#X obj 566 58 inlet~;
#X text 555 37 resonance;
#X obj 212 204 *~;
#X obj 212 238 rpole~;
#X obj 212 271 *~;
#X obj 212 305 rpole~;
#X obj 212 338 *~;
#X obj 212 372 rpole~;
#X obj 212 405 *~;
#X obj 212 439 rpole~;
#X obj 212 533 outlet~;
#X obj 250 503 delwrite~ \$0feedback 0;
#X obj 26 58 delread~ \$0feedback 0;
#X obj 26 92 *~;
#X obj 26 126 clip~ -1 1;
#X obj 212 163 +~;
#X obj 681 62 block~ 1;
#X obj 250 472 *~ -1;
#X connect 0 0 21 1;
#X connect 1 0 9 1;
#X connect 1 0 11 1;
#X connect 1 0 13 1;
#X connect 1 0 15 1;
#X connect 5 0 8 1;
#X connect 5 0 10 1;
#X connect 5 0 12 1;
#X connect 5 0 14 1;
#X connect 6 0 19 1;
#X connect 8 0 9 0;
#X connect 9 0 10 0;
#X connect 10 0 11 0;
#X connect 11 0 12 0;
#X connect 12 0 13 0;
#X connect 13 0 14 0;
#X connect 14 0 15 0;
#X connect 15 0 16 0;
#X connect 15 0 23 0;
#X connect 18 0 19 0;
#X connect 19 0 20 0;
#X connect 20 0 21 0;
#X connect 21 0 8 0;
#X connect 23 0 17 0;
#X restore 62 306 pd LPF;
#X obj 704 86 inlet~;
#X obj 704 116 clip~ 0 1;
#X obj 704 156 *~ 4.2;
#X text 413 179 <-coefficients;
#X text 246 213 <-gain;
#X text 764 157 <-feedback multiplier;
#X obj 153 22 loadbang;
#X obj 704 26 loadbang;
#X obj 153 52 f \$1;
#X obj 704 56 f \$2;
#X text 743 55 <-argument 2;
#X text 195 52 <-argument 1;
#X text 206 81 <-cutoff freq;
#X text 757 85 <-resonance;
#X obj 153 115 lop~ 100;
#X obj 704 190 lop~ 100;
#X text 28 400 Eito Murakami - EM_4lpf~ (05/22/21);
#X text 27 424 (A 4-pole resonant low pass filter based on a patch
by Tom Erbe);
#X obj 153 180 expr~ exp(-6.28 * $v1/max($f2 \, 0.1));
#X obj 402 117 loadbang;
#X obj 402 146 samplerate~;
#X text 342 201 (avoiding "expr divide by zero detected");
#X connect 0 0 25 0;
#X connect 1 0 6 2;
#X connect 3 0 6 0;
#X connect 4 0 21 0;
#X connect 6 0 2 0;
#X connect 7 0 8 0;
#X connect 8 0 9 0;
#X connect 9 0 22 0;
#X connect 13 0 15 0;
#X connect 14 0 16 0;
#X connect 15 0 4 0;
#X connect 16 0 7 0;
#X connect 21 0 0 0;
#X connect 22 0 6 3;
#X connect 25 0 1 0;
#X connect 25 0 6 1;
#X connect 26 0 27 0;
#X connect 27 0 25 1;
