#N canvas 28 181 674 419 12;
#X obj 37 72 phasor~ 220;
#X obj 37 304 *~;
#X obj 37 333 dac~;
#X obj 58 256 hsl 128 15 0 1 0 0 empty empty volume -2 -8 0 10 -262144
-1 -1 0 1;
#X obj 55 276 lop~ 100;
#X obj 98 110 hsl 128 15 200 20000 1 0 empty empty cutoff_freq -2 -8
0 10 -262144 -1 -1 0 1;
#X obj 156 152 hsl 128 15 0 1 0 0 empty empty resonance -2 -8 0 10
-262144 -1 -1 0 1;
#X text 125 72 <-inlet1: audio in;
#X text 293 149 <-inlet3 & argument2: resonance (signal \, 0-1);
#X obj 37 205 EM_4lpf~ 1000 0.5;
#X text 28 367 Eito Murakami - EM_4lpf~ (05/22/21);
#X text 236 109 <-inlet2 & argument1: cutoff frequency (signal \, 0-20000)
;
#X msg 538 327 \; pd dsp 1;
#X obj 538 294 loadbang;
#X floatatom 95 137 6 0 0 0 - - -;
#X floatatom 153 177 5 0 0 0 - - -;
#X text 37 12 EM_4lpf~ is a 4-pole resonant low pass filter based on
a patch by Tom Erbe.;
#X connect 0 0 9 0;
#X connect 1 0 2 0;
#X connect 1 0 2 1;
#X connect 3 0 4 0;
#X connect 4 0 1 1;
#X connect 5 0 14 0;
#X connect 6 0 15 0;
#X connect 9 0 1 0;
#X connect 13 0 12 0;
#X connect 14 0 9 1;
#X connect 15 0 9 2;
