#N canvas -11 -11 1920 970 12;
#X obj 45 54 inlet;
#X text 179 34 attack time;
#X obj 249 56 inlet;
#X obj 179 56 loadbang;
#X obj 179 85 f \$1;
#X text 49 32 gate;
#X obj 427 56 inlet;
#X obj 357 56 loadbang;
#X text 358 33 decay time;
#X obj 179 114 expr if($f1<0 \, 0 \, $f1);
#X obj 357 114 expr if($f1<0 \, 0 \, $f1);
#X obj 45 83 sel 0 1;
#X obj 179 143 s \$0a;
#X obj 357 143 s \$0d;
#X obj 357 85 f \$2;
#X obj 615 56 inlet;
#X obj 545 56 loadbang;
#X obj 545 85 f \$3;
#X text 544 33 sustain level;
#X obj 545 114 clip 0 1;
#X obj 545 143 s \$0s;
#X obj 754 56 inlet;
#X obj 684 56 loadbang;
#X text 681 34 release time;
#X obj 684 114 expr if($f1<0 \, 0 \, $f1);
#X obj 684 143 s \$0r;
#X obj 45 141 s \$0rtrig;
#N canvas -11 -11 1920 970 attack 0;
#X obj 51 312 vline~;
#X obj 84 252 f;
#X msg 84 281 0 \$1;
#X obj 85 109 r \$0d;
#X obj 102 225 r \$0r;
#X obj 137 80 r \$0s;
#X obj 84 196 r \$0rtrig;
#X obj 51 81 f;
#X obj 69 53 r \$0a;
#X obj 51 24 r \$0atrig;
#X obj 51 138 pack f f f;
#X obj 51 370 outlet~;
#X obj 137 109 pow 2;
#X obj 51 341 pow~ 0.5;
#X text 156 197 <-fake release;
#X msg 51 167 1 \$1 \, \$3 \$2 \$1;
#X connect 0 0 13 0;
#X connect 1 0 2 0;
#X connect 2 0 0 0;
#X connect 3 0 10 1;
#X connect 4 0 1 1;
#X connect 5 0 12 0;
#X connect 6 0 1 0;
#X connect 7 0 10 0;
#X connect 8 0 7 1;
#X connect 9 0 7 0;
#X connect 10 0 15 0;
#X connect 12 0 10 2;
#X connect 13 0 11 0;
#X connect 15 0 0 0;
#X restore 49 186 pd attack;
#X obj 49 242 min~;
#X obj 68 112 s \$0atrig;
#X obj 49 300 outlet~;
#X obj 684 85 f \$4;
#X text 44 339 Eito Murakami - EM_adsr~ (06/21/21);
#X obj 49 271 lop~ 100;
#N canvas -11 -11 1920 970 decayrelease 0;
#X obj 51 312 vline~;
#X obj 84 252 f;
#X msg 84 281 0 \$1;
#X obj 85 109 r \$0d;
#X obj 102 225 r \$0r;
#X obj 51 341 pow~ 2;
#X obj 137 109 pow 0.5;
#X obj 137 80 r \$0s;
#X obj 84 196 r \$0rtrig;
#X obj 51 81 f;
#X obj 69 53 r \$0a;
#X obj 51 24 r \$0atrig;
#X msg 51 167 1 \, 1 \$1 \, \$3 \$2 \$1;
#X obj 51 138 pack f f f;
#X obj 51 370 outlet~;
#X text 156 197 <-release;
#X text 126 24 <-fake attack;
#X connect 0 0 5 0;
#X connect 1 0 2 0;
#X connect 2 0 0 0;
#X connect 3 0 13 1;
#X connect 4 0 1 1;
#X connect 5 0 14 0;
#X connect 6 0 13 2;
#X connect 7 0 6 0;
#X connect 8 0 1 0;
#X connect 9 0 13 0;
#X connect 10 0 9 1;
#X connect 11 0 9 0;
#X connect 12 0 0 0;
#X connect 13 0 12 0;
#X restore 74 214 pd decayrelease;
#X text 39 364 (4-stage exponential envelope generator);
#X connect 0 0 11 0;
#X connect 2 0 9 0;
#X connect 3 0 4 0;
#X connect 4 0 9 0;
#X connect 6 0 10 0;
#X connect 7 0 14 0;
#X connect 9 0 12 0;
#X connect 10 0 13 0;
#X connect 11 0 26 0;
#X connect 11 1 29 0;
#X connect 14 0 10 0;
#X connect 15 0 19 0;
#X connect 16 0 17 0;
#X connect 17 0 19 0;
#X connect 19 0 20 0;
#X connect 21 0 24 0;
#X connect 22 0 31 0;
#X connect 24 0 25 0;
#X connect 27 0 28 0;
#X connect 28 0 33 0;
#X connect 31 0 24 0;
#X connect 33 0 30 0;
#X connect 34 0 28 1;
