#N canvas -11 -11 1920 971 12;
#X msg 249 753 all \$1;
#N canvas -11 -11 1920 971 randomlist 0;
#X obj 206 322 list prepend;
#X obj 206 351 list;
#X obj 304 362 list;
#X obj 304 388 list split;
#X obj 55 489 list store;
#X msg 55 462 get \$1 1;
#X obj 337 425 list split 1;
#X obj 304 456 list;
#X obj 436 312 t b f f;
#X obj 304 480 list length;
#X obj 436 97 t b b b b b b;
#X obj 206 262 until;
#X obj 206 291 f;
#X obj 240 290 + 1;
#X obj 436 155 until;
#X obj 496 214 f;
#X obj 530 213 + 1;
#X obj 206 233 f 50;
#X obj 436 283 random 50;
#X obj 496 256 f 50;
#X obj 436 126 f 50;
#X obj 55 518 outlet;
#X obj 496 518 outlet;
#X obj 436 179 t b b;
#X obj 436 68 inlet;
#X msg 310 252 1;
#X msg 514 185 1;
#X text 550 519 <-index;
#X text 110 519 <-value;
#X text 40 24 This subpatch randomizes the order of a list. It is used
to randomly pick priorities for harmonic components.;
#X connect 0 0 1 0;
#X connect 0 0 2 1;
#X connect 0 0 4 1;
#X connect 1 0 0 1;
#X connect 2 0 3 0;
#X connect 3 0 7 0;
#X connect 3 1 6 0;
#X connect 4 0 21 0;
#X connect 5 0 4 0;
#X connect 6 1 7 1;
#X connect 7 0 2 1;
#X connect 7 0 4 1;
#X connect 7 0 9 0;
#X connect 8 0 2 0;
#X connect 8 1 3 1;
#X connect 8 2 5 0;
#X connect 9 0 18 1;
#X connect 10 0 20 0;
#X connect 10 1 19 0;
#X connect 10 2 26 0;
#X connect 10 3 17 0;
#X connect 10 4 25 0;
#X connect 10 5 0 1;
#X connect 11 0 12 0;
#X connect 12 0 13 0;
#X connect 12 0 0 0;
#X connect 13 0 12 1;
#X connect 14 0 23 0;
#X connect 15 0 16 0;
#X connect 15 0 22 0;
#X connect 16 0 15 1;
#X connect 17 0 11 0;
#X connect 18 0 8 0;
#X connect 19 0 18 1;
#X connect 20 0 14 0;
#X connect 23 0 18 0;
#X connect 23 1 15 0;
#X connect 24 0 10 0;
#X connect 25 0 12 1;
#X connect 26 0 15 1;
#X restore 391 726 pd randomlist;
#X msg 479 753 set \$1;
#X msg 391 754 this \$1;
#X obj 99 881 outlet~;
#X obj 121 46 inlet~;
#X obj 121 75 clip~ 0 20000;
#X obj 142 169 inlet~;
#X obj 142 198 clip~ 1 50;
#X obj 228 601 inlet~;
#X obj 228 630 clip~ 0 1;
#X obj 249 666 inlet;
#X obj 249 695 i;
#X obj 249 724 clip 0 2;
#X obj 391 668 inlet;
#X obj 391 697 b;
#X text 172 45 freq;
#X text 274 601 comp_deviation;
#X text 289 666 comp_behavior;
#X text 432 668 reset;
#X obj 391 639 loadbang;
#X obj 206 533 inlet~;
#X text 255 532 comp_exponent;
#X obj 206 562 clip~ 0 5;
#X obj 163 287 inlet~;
#X text 212 286 even_amp;
#X obj 163 316 clip~ 0 1;
#X obj 185 415 inlet~;
#X obj 185 444 clip~ 0 1;
#X text 100 924 EN_additive~ (12/05/21);
#X text 191 168 comp_num;
#X text 234 414 odd_amp;
#X obj 142 111 loadbang;
#X msg 142 140 50;
#X obj 163 229 loadbang;
#X obj 185 357 loadbang;
#X msg 185 386 1;
#X obj 206 475 loadbang;
#X msg 163 258 1;
#X msg 206 504 1;
#X obj 99 852 clone EM_additivevoice 50;
#X connect 0 0 40 7;
#X connect 1 0 3 0;
#X connect 1 1 2 0;
#X connect 2 0 40 0;
#X connect 3 0 40 8;
#X connect 5 0 6 0;
#X connect 6 0 40 1;
#X connect 7 0 8 0;
#X connect 8 0 40 2;
#X connect 9 0 10 0;
#X connect 10 0 40 6;
#X connect 11 0 12 0;
#X connect 12 0 13 0;
#X connect 13 0 0 0;
#X connect 14 0 15 0;
#X connect 15 0 1 0;
#X connect 20 0 15 0;
#X connect 21 0 23 0;
#X connect 23 0 40 5;
#X connect 24 0 26 0;
#X connect 26 0 40 3;
#X connect 27 0 28 0;
#X connect 28 0 40 4;
#X connect 32 0 33 0;
#X connect 33 0 7 0;
#X connect 34 0 38 0;
#X connect 35 0 36 0;
#X connect 36 0 27 0;
#X connect 37 0 39 0;
#X connect 38 0 24 0;
#X connect 39 0 21 0;
#X connect 40 0 4 0;
