#N canvas 482 0 1164 956 12;
#X obj 42 92 inlet~;
#X text 50 72 left;
#X obj 122 92 inlet~;
#X text 126 72 right;
#X obj 232 92 inlet~;
#X text 283 91 control;
#X obj 232 121 clip~ 0 1;
#X obj 342 179 *~ 2;
#X obj 342 208 clip~ 0 1;
#X obj 232 179 *~ 2;
#X obj 232 208 clip~ 0 1;
#X obj 232 150 expr~ 1-$v1;
#X obj 342 237 lop~ 100;
#X obj 232 237 lop~ 100;
#X obj 42 276 *~;
#X obj 122 276 *~;
#X obj 42 305 outlet~;
#X obj 122 305 outlet~;
#X obj 232 34 loadbang;
#X obj 232 63 f \$1;
#X text 22 338 EM_balance (06/28/21);
#X text 18 359 (Stereo balance controller using linear gain);
#X connect 0 0 14 0;
#X connect 2 0 15 0;
#X connect 4 0 6 0;
#X connect 6 0 7 0;
#X connect 6 0 11 0;
#X connect 7 0 8 0;
#X connect 8 0 12 0;
#X connect 9 0 10 0;
#X connect 10 0 13 0;
#X connect 11 0 9 0;
#X connect 12 0 15 1;
#X connect 13 0 14 1;
#X connect 14 0 16 0;
#X connect 15 0 17 0;
#X connect 18 0 19 0;
#X connect 19 0 4 0;
