#N canvas 26 191 651 397 12;
#X text 31 342 Eito Murakami - EM_bitcrusher~ (05/16/21);
#X obj 37 169 EM_bitcrusher~ 0.5;
#X obj 37 271 *~;
#X obj 37 300 dac~;
#X obj 58 223 hsl 128 15 0 1 0 0 empty empty volume -2 -8 0 10 -262144
-1 -1 5400 1;
#X obj 55 243 lop~ 100;
#X msg 538 297 \; pd dsp 1;
#X obj 538 264 loadbang;
#X obj 163 116 hsl 128 15 0 1 0 0 empty empty depth -2 -8 0 10 -262144
-1 -1 0 1;
#X text 126 76 <-inlet1: audio in;
#X text 307 114 <-inlet2 & argument1: depth (signal \, 0-1);
#X obj 36 76 phasor~ 220;
#X floatatom 160 141 5 0 0 0 - - -;
#X text 33 15 EM_bitcrusher~ is a bitcrusher using quantization.;
#X connect 1 0 2 0;
#X connect 2 0 3 0;
#X connect 2 0 3 1;
#X connect 4 0 5 0;
#X connect 5 0 2 1;
#X connect 7 0 6 0;
#X connect 8 0 12 0;
#X connect 11 0 1 0;
#X connect 12 0 1 1;
