#N canvas -11 -11 1920 970 12;
#X obj 55 272 metro;
#X obj 332 145 t b f;
#X obj 87 53 inlet;
#X obj 332 52 inlet;
#X obj 55 324 outlet;
#X obj 216 323 outlet;
#X text 92 33 BPM;
#X obj 87 132 clip 30 250;
#X obj 87 97 f \$1;
#X obj 142 53 loadbang;
#X text 123 96 <-argument1;
#X obj 332 110 clip 1 128;
#X text 330 30 division;
#X obj 518 51 inlet;
#X obj 518 80 i;
#X obj 518 109 clip 0 1;
#X text 517 29 switch;
#X text 21 382 Eito Murakami - EM_clock (05/22/21);
#X text 18 409 (A BPM clock generator using metro);
#X obj 332 81 i \$2;
#X obj 403 53 loadbang;
#X text 108 324 <-bang;
#X obj 87 179 expr 60000*4/max($f1 \, 0.1)/max($f2 \, 0.1);
#X text 379 180 <-avoiding "expr divide by zero detected";
#X text 269 324 <-interval (ms);
#X connect 0 0 4 0;
#X connect 1 0 22 0;
#X connect 1 1 22 1;
#X connect 2 0 8 0;
#X connect 3 0 19 0;
#X connect 7 0 22 0;
#X connect 8 0 7 0;
#X connect 9 0 8 0;
#X connect 11 0 1 0;
#X connect 13 0 14 0;
#X connect 14 0 15 0;
#X connect 15 0 0 0;
#X connect 19 0 11 0;
#X connect 20 0 19 0;
#X connect 22 0 0 1;
#X connect 22 0 5 0;
