#N canvas -11 -11 1920 970 12;
#X obj 44 122 f;
#X obj 84 122 + 1;
#X msg 411 94 0;
#X obj 44 151 t f f;
#X obj 44 216 sel 1;
#X msg 44 245 0;
#X obj 180 149 - 1;
#X obj 112 216 sel 0;
#X msg 148 150 0;
#X obj 44 64 inlet;
#X text 44 42 trigger;
#X obj 44 93 b;
#X obj 222 63 inlet;
#X obj 148 63 loadbang;
#X text 218 42 division;
#X text 186 91 <-argument1: division (int);
#X obj 148 92 i \$1;
#X obj 112 245 outlet;
#X obj 411 36 inlet;
#X obj 411 65 b;
#X text 410 16 reset;
#X text 29 296 Eito Murakami - EM_div (06/21/21);
#X text 26 320 (A clock divider);
#X obj 148 121 t b f;
#X obj 180 178 expr if($f1<0 \, 0 \, $f1);
#X connect 0 0 1 0;
#X connect 0 0 3 0;
#X connect 1 0 0 1;
#X connect 2 0 0 1;
#X connect 3 0 4 0;
#X connect 3 1 7 0;
#X connect 4 0 5 0;
#X connect 5 0 0 1;
#X connect 6 0 24 0;
#X connect 7 0 17 0;
#X connect 8 0 0 1;
#X connect 9 0 11 0;
#X connect 11 0 0 0;
#X connect 12 0 16 0;
#X connect 13 0 16 0;
#X connect 16 0 23 0;
#X connect 18 0 19 0;
#X connect 19 0 2 0;
#X connect 23 0 8 0;
#X connect 23 1 6 0;
#X connect 24 0 4 1;
