#N canvas -11 -11 1920 971 12;
#X obj 37 186 *~;
#X obj 197 186 *~;
#X obj 55 158 lop~ 100;
#X obj 215 158 lop~ 100;
#X obj 227 235 +~;
#X obj 357 235 +~;
#X obj 227 264 outlet~;
#X obj 357 264 outlet~;
#X obj 367 186 *~;
#X obj 497 186 *~;
#X obj 385 158 lop~ 100;
#X obj 515 158 lop~ 100;
#X obj 37 63 inlet~;
#X obj 197 63 inlet~;
#X obj 367 63 inlet~;
#X obj 497 63 inlet~;
#X text 34 40 dry left;
#X text 194 40 dry right;
#X text 365 39 wet left;
#X text 496 40 wet right;
#X text 234 286 left;
#X text 365 286 right;
#X text 622 39 balance(0-1);
#X obj 624 63 inlet~;
#X obj 55 129 expr~ 1-$v1;
#X obj 215 129 expr~ 1-$v1;
#X text 34 334 Eito Murakami - EM_drywet~ (06/21/2021);
#X text 31 358 (2-channel stereo crossfader with linear gain);
#X connect 0 0 4 0;
#X connect 1 0 5 0;
#X connect 2 0 0 1;
#X connect 3 0 1 1;
#X connect 4 0 6 0;
#X connect 5 0 7 0;
#X connect 8 0 4 1;
#X connect 9 0 5 0;
#X connect 10 0 8 1;
#X connect 11 0 9 1;
#X connect 12 0 0 0;
#X connect 13 0 1 0;
#X connect 14 0 8 0;
#X connect 15 0 9 0;
#X connect 23 0 10 0;
#X connect 23 0 11 0;
#X connect 23 0 24 0;
#X connect 23 0 25 0;
#X connect 24 0 2 0;
#X connect 25 0 3 0;
