#N canvas 118 232 596 614 12;
#X msg 109 350 1 \, 0 10;
#X obj 109 379 vline~;
#X obj 41 371 noise~;
#X obj 41 405 *~;
#X obj 41 495 *~;
#X obj 62 530 dac~;
#X msg 452 515 \; pd dsp 1;
#X obj 452 482 loadbang;
#X obj 176 430 hsl 128 15 0 1 0 0 empty empty volume -2 -8 0 10 -262144
-1 -1 0 1;
#X obj 173 450 lop~ 100;
#X obj 108 495 *~;
#X obj 109 105 EM_clock 128 128;
#X obj 218 81 tgl 15 0 empty empty empty 17 7 0 10 -262144 -1 -1 0
1;
#X text 235 78 <-start/stop clock;
#X obj 109 134 bng 15 250 50 0 empty empty empty 17 7 0 10 -262144
-1 -1;
#X obj 109 305 bng 15 250 50 0 empty empty empty 17 7 0 10 -262144
-1 -1;
#X text 127 303 <-output bang;
#X obj 109 276 EM_div 8;
#X obj 138 169 hsl 128 15 0 32 0 0 empty empty empty -2 -8 0 10 -262144
-1 -1 0 1;
#X floatatom 135 223 5 0 0 0 - - -;
#X text 127 131 <-inlet1: trigger (bang);
#X text 272 166 <-inlet2 & argument1: division (int \, 0-);
#X obj 162 252 bng 15 250 50 0 empty empty empty 17 7 0 10 -262144
-1 -1;
#X obj 41 434 *~ 0.4;
#X obj 135 194 i;
#X text 42 568 Eito Murakami - EM_div (06/21/21);
#X text 21 18 EM_div is a clock divider. Use with EM_clock to generate
a clock with a subordinate resolution.;
#X text 181 250 <-inlet3: reset (bang);
#X connect 0 0 1 0;
#X connect 1 0 3 1;
#X connect 2 0 3 0;
#X connect 3 0 23 0;
#X connect 4 0 5 0;
#X connect 7 0 6 0;
#X connect 8 0 9 0;
#X connect 9 0 10 1;
#X connect 9 0 4 1;
#X connect 10 0 5 1;
#X connect 11 0 14 0;
#X connect 12 0 11 2;
#X connect 14 0 17 0;
#X connect 15 0 0 0;
#X connect 17 0 15 0;
#X connect 18 0 24 0;
#X connect 19 0 17 1;
#X connect 22 0 17 2;
#X connect 23 0 4 0;
#X connect 23 0 10 0;
#X connect 24 0 19 0;
