#N canvas 38 183 722 464 12;
#X obj 36 174 EM_fold~ 0.5;
#X obj 225 203 EM_scope;
#X text 38 434 Eito Murakami - EM_fold~ (05/22/21);
#X obj 35 83 osc~ 220;
#X obj 120 122 hsl 128 15 0 1 0 0 empty empty empty -2 -8 0 10 -262144
-1 -1 0 1;
#X floatatom 117 147 5 0 0 0 - - -;
#X text 260 120 <-inlet2 & argument1: depth(gain multiplier) (signal
\, 0-1);
#X text 100 82 <-inlet1: audio in;
#X msg 538 377 \; pd dsp 1;
#X obj 538 344 loadbang;
#X obj 37 271 *~;
#X obj 37 300 dac~;
#X obj 58 223 hsl 128 15 0 1 0 0 empty empty volume -2 -8 0 10 -262144
-1 -1 0 1;
#X obj 55 243 lop~ 100;
#X text 42 25 EM_fold~ is a simple wavefolder using expr~. The depth
value of 0 bypasses the incoming audio signal.;
#X connect 0 0 1 0;
#X connect 0 0 10 0;
#X connect 3 0 0 0;
#X connect 4 0 5 0;
#X connect 5 0 0 1;
#X connect 9 0 8 0;
#X connect 10 0 11 0;
#X connect 10 0 11 1;
#X connect 12 0 13 0;
#X connect 13 0 10 1;
