#N canvas -11 -11 1920 970 12;
#X obj 85 36 inlet~;
#X obj 194 570 outlet~;
#X obj 245 36 inlet~;
#X obj 354 570 outlet~;
#X obj 408 35 inlet;
#X text 404 13 reclength(ms);
#X obj 527 37 inlet;
#X obj 408 64 / 10;
#X obj 85 144 loadbang;
#X obj 85 173 f \$1;
#X obj 85 202 *;
#X obj 408 93 t b f;
#X obj 25 36 inlet;
#X obj 527 146 == \$1;
#X text 90 15 left;
#X text 250 14 right;
#X obj 527 175 sel 1;
#X msg 527 204 1;
#X obj 527 233 f;
#X obj 687 37 inlet;
#X obj 245 340 *~;
#X obj 85 340 *~;
#X obj 85 65 delwrite~ \$0dell 9000;
#X obj 245 65 delwrite~ \$0delr 9000;
#X obj 85 281 delread4~ \$0dell;
#X obj 245 281 delread4~ \$0delr;
#X obj 85 235 lop~ 100;
#X text 561 233 <-voice active/inactive;
#X obj 527 262 lop~ 10;
#X text 153 612 EM_granular_voice (06/06/21);
#X text 687 16 voice reset (0);
#X text 527 16 voice control(int);
#X obj 296 424 random 101;
#X obj 194 517 EM_balance~ 0.5;
#X obj 828 38 inlet;
#X text 827 17 pan_depth;
#X obj 828 67 t b f;
#X obj 687 66 t b f;
#X obj 296 485 lop~ 10;
#X obj 296 451 expr $f2*($f1/100 - 0.5)+0.5;
#X text 505 451 <-convert the range from 0 to 1;
#X text 153 634 The voice abstraction for EM_granular. Use with EM_randlist
to control the voice.;
#X connect 0 0 22 0;
#X connect 2 0 23 0;
#X connect 4 0 7 0;
#X connect 6 0 13 0;
#X connect 7 0 11 0;
#X connect 8 0 9 0;
#X connect 9 0 10 0;
#X connect 10 0 26 0;
#X connect 11 0 10 0;
#X connect 11 1 10 1;
#X connect 13 0 16 0;
#X connect 16 0 17 0;
#X connect 17 0 18 0;
#X connect 18 0 28 0;
#X connect 19 0 37 0;
#X connect 20 0 33 1;
#X connect 21 0 33 0;
#X connect 24 0 21 0;
#X connect 25 0 20 0;
#X connect 26 0 24 0;
#X connect 26 0 25 0;
#X connect 28 0 20 1;
#X connect 28 0 21 1;
#X connect 32 0 39 0;
#X connect 33 0 1 0;
#X connect 33 1 3 0;
#X connect 34 0 36 0;
#X connect 36 0 39 0;
#X connect 36 1 39 1;
#X connect 37 0 32 0;
#X connect 37 1 18 0;
#X connect 38 0 33 2;
#X connect 39 0 38 0;
