#N canvas -11 -11 1920 970 12;
#X msg 63 542 60;
#X msg 111 542 61;
#X msg 165 542 62;
#X msg 216 542 63;
#X msg 268 542 64;
#X msg 329 542 65;
#X msg 380 542 66;
#X msg 441 542 67;
#X msg 502 542 68;
#X msg 563 542 69;
#X msg 625 542 70;
#X msg 696 542 71;
#X msg 767 542 72;
#X obj 63 471 sel 97 119 115 101 100 102 116 103 121 104 117 106 107
122 120;
#X obj 837 651 i;
#X obj 63 621 +;
#X msg 837 542 -12;
#X msg 908 542 12;
#X obj 238 690 mtof;
#X obj 63 846 outlet;
#X obj 63 428 change;
#X obj 63 328 key;
#X obj 131 267 keyup;
#X msg 131 332 set \$1;
#X msg 131 299 0;
#X obj 238 844 outlet;
#X floatatom 111 149 5 0 0 1 MIDI - -;
#X floatatom 111 182 5 0 0 1 freq - -;
#X floatatom 111 215 5 0 0 1 octave - -;
#X obj 111 22 r \$0midi;
#X obj 243 23 r \$0freq;
#X obj 374 22 r \$0octave;
#X obj 290 723 s \$0freq;
#X text 122 848 <-MIDI out;
#X text 290 845 <-freq out;
#X text 121 428 <-prevent excessive bangs;
#X obj 837 695 s \$0octave;
#X text 1190 616 <-octave boundaries;
#X obj 93 672 s \$0midi;
#X obj 131 391 s \$0keyup;
#X obj 423 705 r \$0keydown;
#X msg 423 734 1;
#X obj 423 843 outlet;
#X obj 524 705 r \$0keyup;
#X msg 524 734 0;
#X text 479 844 <-note on/off;
#X obj 182 123 tgl 15 0 empty empty empty 17 7 0 10 -262144 -1 -1 1
1;
#X obj 210 153 s \$0switch;
#X obj 63 810 spigot;
#X obj 102 782 r \$0switch;
#X obj 238 804 spigot;
#X obj 277 766 r \$0switch;
#X obj 423 808 spigot;
#X obj 462 780 r \$0switch;
#X obj 111 96 spigot;
#X obj 150 68 r \$0switch;
#X obj 243 88 spigot;
#X obj 282 60 r \$0switch;
#X obj 374 84 spigot;
#X obj 413 56 r \$0switch;
#X obj 539 60 loadbang;
#X msg 539 89 1;
#X obj 103 737 s \$0keydown;
#X obj 837 612 expr if($f1+$f2>24 || $f1+$f2<-24 \, $f2 \, $f1+$f2)
;
#X obj 103 706 b;
#X obj 131 360 b;
#X text 61 902 Eito Murakami - EM_ktom (05/19/21);
#X connect 0 0 15 0;
#X connect 1 0 15 0;
#X connect 2 0 15 0;
#X connect 3 0 15 0;
#X connect 4 0 15 0;
#X connect 5 0 15 0;
#X connect 6 0 15 0;
#X connect 7 0 15 0;
#X connect 8 0 15 0;
#X connect 9 0 15 0;
#X connect 10 0 15 0;
#X connect 11 0 15 0;
#X connect 12 0 15 0;
#X connect 13 0 0 0;
#X connect 13 1 1 0;
#X connect 13 2 2 0;
#X connect 13 3 3 0;
#X connect 13 4 4 0;
#X connect 13 5 5 0;
#X connect 13 6 6 0;
#X connect 13 7 7 0;
#X connect 13 8 8 0;
#X connect 13 9 9 0;
#X connect 13 10 10 0;
#X connect 13 11 11 0;
#X connect 13 12 12 0;
#X connect 13 13 16 0;
#X connect 13 14 17 0;
#X connect 14 0 63 1;
#X connect 14 0 15 1;
#X connect 14 0 36 0;
#X connect 15 0 18 0;
#X connect 15 0 38 0;
#X connect 15 0 48 0;
#X connect 15 0 64 0;
#X connect 16 0 63 0;
#X connect 17 0 63 0;
#X connect 18 0 32 0;
#X connect 18 0 50 0;
#X connect 20 0 13 0;
#X connect 21 0 20 0;
#X connect 22 0 24 0;
#X connect 23 0 20 0;
#X connect 23 0 65 0;
#X connect 24 0 23 0;
#X connect 29 0 54 0;
#X connect 30 0 56 0;
#X connect 31 0 58 0;
#X connect 40 0 41 0;
#X connect 41 0 52 0;
#X connect 43 0 44 0;
#X connect 44 0 52 0;
#X connect 46 0 47 0;
#X connect 48 0 19 0;
#X connect 49 0 48 1;
#X connect 50 0 25 0;
#X connect 51 0 50 1;
#X connect 52 0 42 0;
#X connect 53 0 52 1;
#X connect 54 0 26 0;
#X connect 55 0 54 1;
#X connect 56 0 27 0;
#X connect 57 0 56 1;
#X connect 58 0 28 0;
#X connect 59 0 58 1;
#X connect 60 0 61 0;
#X connect 61 0 46 0;
#X connect 63 0 14 0;
#X connect 64 0 62 0;
#X connect 65 0 39 0;
#X coords 0 -1 1 1 100 120 1 100 120;
