#N canvas -11 -11 1920 970 12;
#X obj 43 31 inlet;
#X obj 167 131 inlet;
#X obj 257 132 inlet;
#X text 41 9 input value;
#X text 166 110 i-min;
#X text 257 111 i-max;
#X obj 353 131 inlet;
#X obj 447 130 inlet;
#X text 352 110 o-min;
#X text 447 109 o-max;
#X obj 257 160 t b f;
#X obj 353 159 t b f;
#X obj 447 158 t b f;
#X obj 167 159 t b f;
#X obj 43 268 outlet;
#X text 42 306 Eito Murakami - EM_map (05/22/21);
#X text 40 331 (An I/O mapping function);
#X obj 136 82 f \$1;
#X obj 230 82 f \$2;
#X obj 324 82 f \$3;
#X obj 418 82 f \$4;
#X obj 136 53 loadbang;
#X obj 230 53 loadbang;
#X obj 324 53 loadbang;
#X obj 418 53 loadbang;
#X obj 43 229 expr $f4 + ($f1-$f2)*(($f5-$f4)/max(($f3-$f2) \, 1e-20))
;
#X text 434 232 <-avoiding "expr divide by zero detected";
#X connect 0 0 25 0;
#X connect 1 0 13 0;
#X connect 2 0 10 0;
#X connect 6 0 11 0;
#X connect 7 0 12 0;
#X connect 10 0 25 0;
#X connect 10 1 25 2;
#X connect 11 0 25 0;
#X connect 11 1 25 3;
#X connect 12 0 25 0;
#X connect 12 1 25 4;
#X connect 13 0 25 0;
#X connect 13 1 25 1;
#X connect 17 0 25 1;
#X connect 18 0 25 2;
#X connect 19 0 25 3;
#X connect 20 0 25 4;
#X connect 21 0 17 0;
#X connect 22 0 18 0;
#X connect 23 0 19 0;
#X connect 24 0 20 0;
#X connect 25 0 14 0;
