#N canvas -11 -11 1920 970 12;
#X obj 33 69 b;
#X obj 33 98 t b b b;
#X obj 79 154 del;
#X obj 224 42 inlet;
#X obj 154 100 expr if($f1<0 \, 0 \, $f1);
#X msg 79 125 stop;
#X msg 33 127 1;
#X msg 79 183 0;
#X obj 33 213 f;
#X text 186 21 duration;
#X obj 154 42 loadbang;
#X obj 154 71 f \$1;
#X obj 33 40 inlet;
#X obj 33 242 outlet;
#X text 34 19 trigger;
#X text 30 280 EM_makegate (06/21/21);
#X text 29 307 (A gate generator);
#X connect 0 0 1 0;
#X connect 1 0 6 0;
#X connect 1 1 2 0;
#X connect 1 2 5 0;
#X connect 2 0 7 0;
#X connect 3 0 4 0;
#X connect 4 0 2 1;
#X connect 5 0 2 0;
#X connect 6 0 8 0;
#X connect 7 0 8 0;
#X connect 8 0 13 0;
#X connect 10 0 11 0;
#X connect 11 0 4 0;
#X connect 12 0 0 0;
