#N canvas -11 -11 1920 971 12;
#X obj 33 89 inlet;
#X obj 33 247 % 12;
#X obj 33 276 sel 0 1 2 3 4 5 6 7 8 9 10 11;
#X msg 33 305 C;
#X msg 113 305 D;
#X msg 193 305 E;
#X msg 233 305 F;
#X msg 309 305 G;
#X msg 389 305 A;
#X msg 73 305 Cs;
#X msg 153 305 Ds;
#X msg 270 305 Fs;
#X msg 349 305 Gs;
#X msg 429 305 As;
#X msg 469 305 B;
#X obj 33 334 symbol;
#X obj 33 118 clip 0 127;
#X obj 133 30 inlet;
#X obj 33 147 t f f;
#X obj 115 175 - 12;
#X obj 115 204 / 12;
#X obj 115 233 i;
#X msg 114 402 set \$1;
#X obj 114 373 makefilename %%s%i;
#X obj 114 431 makefilename;
#X obj 133 59 ftom;
#X text 37 66 MIDI;
#X text 133 9 freq;
#X obj 114 460 outlet;
#X obj 133 88 expr round($f1);
#X text 22 490 Eito Murakami - MIDI to Symbol (07/23/21);
#X connect 0 0 16 0;
#X connect 1 0 2 0;
#X connect 2 0 3 0;
#X connect 2 1 9 0;
#X connect 2 2 4 0;
#X connect 2 3 10 0;
#X connect 2 4 5 0;
#X connect 2 5 6 0;
#X connect 2 6 11 0;
#X connect 2 7 7 0;
#X connect 2 8 12 0;
#X connect 2 9 8 0;
#X connect 2 10 13 0;
#X connect 2 11 14 0;
#X connect 3 0 15 0;
#X connect 4 0 15 0;
#X connect 5 0 15 0;
#X connect 6 0 15 0;
#X connect 7 0 15 0;
#X connect 8 0 15 0;
#X connect 9 0 15 0;
#X connect 10 0 15 0;
#X connect 11 0 15 0;
#X connect 12 0 15 0;
#X connect 13 0 15 0;
#X connect 14 0 15 0;
#X connect 15 0 24 0;
#X connect 16 0 18 0;
#X connect 17 0 25 0;
#X connect 18 0 1 0;
#X connect 18 1 19 0;
#X connect 19 0 20 0;
#X connect 20 0 21 0;
#X connect 21 0 23 0;
#X connect 22 0 24 0;
#X connect 23 0 22 0;
#X connect 24 0 28 0;
#X connect 25 0 29 0;
#X connect 29 0 16 0;
