#N canvas -11 -11 1920 970 12;
#X text 41 59 input value;
#X obj 139 23 loadbang;
#X obj 270 23 loadbang;
#X obj 399 23 loadbang;
#X obj 540 23 loadbang;
#X text 42 236 Eito Murakami - EM_map~ (05/22/21);
#X text 40 261 (An audio-rate I/O mapping function);
#X obj 43 81 inlet~;
#X obj 139 52 f \$1;
#X obj 270 52 f \$2;
#X obj 540 52 f \$4;
#X obj 399 52 f \$3;
#X obj 139 81 inlet~;
#X obj 270 81 inlet~;
#X obj 399 81 inlet~;
#X obj 540 81 inlet~;
#X text 190 81 <-i-min;
#X text 322 81 <-i-max;
#X text 450 81 <-o-min;
#X text 592 81 <-o-max;
#X obj 139 110 lop~ 100;
#X obj 270 110 lop~ 100;
#X obj 399 110 lop~ 100;
#X obj 540 110 lop~ 100;
#X obj 43 198 outlet~;
#X obj 43 169 expr~ $v4 + ($v1-$v2)*(($v5-$v4)/max(($v3-$v2) \, 1e-20))
;
#X connect 1 0 8 0;
#X connect 2 0 9 0;
#X connect 3 0 11 0;
#X connect 4 0 10 0;
#X connect 7 0 25 0;
#X connect 8 0 12 0;
#X connect 9 0 13 0;
#X connect 10 0 15 0;
#X connect 11 0 14 0;
#X connect 12 0 20 0;
#X connect 13 0 21 0;
#X connect 14 0 22 0;
#X connect 15 0 23 0;
#X connect 20 0 25 1;
#X connect 21 0 25 2;
#X connect 22 0 25 3;
#X connect 23 0 25 4;
#X connect 25 0 24 0;
