#N canvas -11 -11 1920 971 12;
#X obj 91 328 osc~;
#X obj 201 357 *~;
#X obj 219 285 *~;
#X text 180 203 <-global frequency;
#X obj 109 261 *~;
#X obj 25 100 inlet~;
#X text 19 80 fm signal;
#X text 175 97 ratio;
#X text 285 98 index;
#X obj 91 299 +~;
#X obj 201 386 outlet~;
#X text 200 405 fm out;
#X obj 91 386 outlet~;
#X text 88 405 audio out;
#X obj 237 156 lop~ 100;
#X obj 109 203 r fm_freq;
#X obj 127 98 inlet~;
#X obj 127 127 clip~ 0 10;
#X obj 237 127 clip~ 1 100;
#X obj 237 98 inlet~;
#X obj 127 156 lop~ 100;
#X obj 127 40 loadbang;
#X obj 127 69 f \$1;
#X obj 237 40 loadbang;
#X obj 237 69 f \$2;
#X text 86 458 EM_operator~ (12/05/21);
#X connect 0 0 1 0;
#X connect 0 0 12 0;
#X connect 1 0 10 0;
#X connect 2 0 1 1;
#X connect 4 0 2 0;
#X connect 4 0 9 1;
#X connect 5 0 9 0;
#X connect 9 0 0 0;
#X connect 14 0 2 1;
#X connect 15 0 4 0;
#X connect 16 0 17 0;
#X connect 17 0 20 0;
#X connect 18 0 14 0;
#X connect 19 0 18 0;
#X connect 20 0 4 1;
#X connect 21 0 22 0;
#X connect 22 0 16 0;
#X connect 23 0 24 0;
#X connect 24 0 19 0;
#X coords 0 971 1 970 85 95 0;
