#N canvas 63 173 817 591 12;
#X obj 37 488 *~;
#X obj 158 523 dac~;
#X text 125 110 <-inlet1: audio in;
#X msg 538 508 \; pd dsp 1;
#X obj 538 475 loadbang;
#X obj 354 423 hsl 128 15 0 1 0 0 empty empty volume -2 -8 0 10 -262144
-1 -1 9000 1;
#X obj 351 443 lop~ 100;
#X obj 286 488 *~;
#X obj 81 230 hsl 128 15 0 1000 0 0 empty empty empty -2 -8 0 10 -262144
-1 -1 0 1;
#X obj 37 204 *~;
#X obj 55 176 vline~;
#X text 178 147 <-click here to test audio;
#X obj 123 255 hsl 128 15 0 1 0 0 empty empty empty -2 -8 0 10 -262144
-1 -1 0 1;
#X obj 164 280 hsl 128 15 0 1 0 0 empty empty empty -2 -8 0 10 -262144
-1 -1 0 1;
#X obj 206 305 hsl 128 15 200 20000 1 0 empty empty empty -2 -8 0 10
-262144 -1 -1 0 1;
#X obj 247 330 hsl 128 15 0 1 0 0 empty empty empty -2 -8 0 10 -262144
-1 -1 0 1;
#X obj 286 355 hradio 15 1 0 2 empty empty empty 0 -8 0 10 -262144
-1 -1 0;
#X text 218 226 <-inlet2 & argument1: delay time (signal \, 0-1000)
;
#X text 259 252 <-inlet3 & argument2: feedback gain (signal \, 0-1)
;
#X text 300 277 <-inlet4 & argument3: bitcrusher depth (signal \, 0-1)
;
#X text 384 328 <-inlet6 & argument5: dry/wet gain (signal \, 0-1)
;
#X text 325 353 <-inlet7 & argument6: ping pong direction (integer
\, 0 or 1);
#X text 343 303 <-inlet5 & argument4: LPF cutoff frequency (signal
\, 0-20000);
#X text 28 551 Eito Murakami - EM_pingpong~ (05/22/21);
#X obj 37 109 phasor~ 220;
#X msg 55 148 0 \, 1 1 0 \, 0 100 1;
#X obj 37 380 EM_pingpong~ 500 0.6 0.05 6000 0.5 0;
#X text 37 12 EM_pingpong~ is a ping pong delay with bitcrusher and
low pass filter in the feedback loop. The feedback gain of 1 can "freeze"
the incoming audio signal. In order to hear the dry and wet signals
at the same volume \, the dry/wet gain should be set to 0.5.;
#X connect 0 0 1 0;
#X connect 4 0 3 0;
#X connect 5 0 6 0;
#X connect 6 0 7 1;
#X connect 6 0 0 1;
#X connect 7 0 1 1;
#X connect 8 0 26 1;
#X connect 9 0 26 0;
#X connect 10 0 9 1;
#X connect 12 0 26 2;
#X connect 13 0 26 3;
#X connect 14 0 26 4;
#X connect 15 0 26 5;
#X connect 16 0 26 6;
#X connect 24 0 9 0;
#X connect 25 0 10 0;
#X connect 26 0 0 0;
#X connect 26 1 7 0;
