#N canvas 103 272 505 361 12;
#X obj 37 241 *~;
#X obj 37 270 dac~;
#X obj 58 193 hsl 128 15 0 1 0 0 empty empty volume -2 -8 0 10 -262144
-1 -1 0 1;
#X obj 55 213 lop~ 100;
#X msg 368 297 \; pd dsp 1;
#X obj 368 264 loadbang;
#X text 31 312 Eito Murakami - EM_switch~ (05/22/21);
#X obj 118 115 tgl 15 0 empty empty empty 17 7 0 10 -262144 -1 -1 0
1;
#X obj 37 72 phasor~ 220;
#X text 123 72 <-inlet1: audio in;
#X text 139 113 <-inlet2 & argument1: switch (integer \, 0 or 1);
#X text 33 15 EM_switch~ is an audio signal switch.;
#X obj 37 139 EM_switch~ 0;
#X connect 0 0 1 0;
#X connect 0 0 1 1;
#X connect 2 0 3 0;
#X connect 3 0 0 1;
#X connect 5 0 4 0;
#X connect 7 0 12 1;
#X connect 8 0 12 0;
#X connect 12 0 0 0;
