#N canvas -11 -11 1920 970 12;
#X obj 55 22 inlet~;
#X obj 55 86 snapshot~;
#X obj 85 55 bang~;
#X obj 151 27 block~ 1;
#X floatatom 55 150 10 0 0 0 - - -;
#X obj 55 179 outlet;
#X text 23 215 Eito Murakami - EM_snapshot (05/22/21);
#X text 20 239 (snapshot~ with continuous bang~ at the block size of
64);
#X connect 0 0 1 0;
#X connect 1 0 4 0;
#X connect 2 0 1 0;
#X connect 4 0 5 0;
#X coords 0 -1 1 1 80 50 1 50 125;
