#N canvas -11 -11 1920 970 12;
#X symbolatom 104 125 10 0 0 0 - - -;
#X obj 104 163 symbol;
#X obj 104 194 sel C4 Cs4 D4 Ds4 E4 F4 Fs4 G4 Gs4 A4 As4 B4 C5 Cs5
D5 Ds5 E5 F5 Fs5 G5 Gs5 A5 As5 B5, f 128;
#X msg 104 236 60;
#X msg 143 236 61;
#X msg 183 236 62;
#X msg 222 236 63;
#X msg 260 236 64;
#X msg 299 236 65;
#X msg 339 236 66;
#X msg 378 236 67;
#X msg 419 236 68;
#X msg 458 236 69;
#X msg 498 236 70;
#X msg 537 236 71;
#X msg 575 236 72;
#X msg 614 236 73;
#X msg 654 236 74;
#X msg 693 236 75;
#X msg 730 236 76;
#X msg 770 236 77;
#X msg 809 236 78;
#X msg 847 236 79;
#X msg 886 236 80;
#X msg 926 236 81;
#X msg 965 236 82;
#X msg 1004 236 83;
#X obj 110 335 f;
#X obj 110 364 outlet;
#X obj 104 34 inlet;
#X obj 104 63 symbol;
#X text 21 413 [Work In Progress] Eito Murakami - EM_stom (05/19/21)
;
#X text 21 440 (note name to MIDI converter);
#X connect 0 0 1 0;
#X connect 1 0 2 0;
#X connect 2 0 3 0;
#X connect 2 1 4 0;
#X connect 2 2 5 0;
#X connect 2 3 6 0;
#X connect 2 4 7 0;
#X connect 2 5 8 0;
#X connect 2 6 9 0;
#X connect 2 7 10 0;
#X connect 2 8 11 0;
#X connect 2 9 12 0;
#X connect 2 10 13 0;
#X connect 2 11 14 0;
#X connect 2 12 15 0;
#X connect 2 13 16 0;
#X connect 2 14 17 0;
#X connect 2 15 18 0;
#X connect 2 16 19 0;
#X connect 2 17 20 0;
#X connect 2 18 21 0;
#X connect 2 19 22 0;
#X connect 2 20 23 0;
#X connect 2 21 24 0;
#X connect 2 22 25 0;
#X connect 2 23 26 0;
#X connect 3 0 27 0;
#X connect 4 0 27 0;
#X connect 5 0 27 0;
#X connect 6 0 27 0;
#X connect 7 0 27 0;
#X connect 8 0 27 0;
#X connect 9 0 27 0;
#X connect 10 0 27 0;
#X connect 11 0 27 0;
#X connect 12 0 27 0;
#X connect 13 0 27 0;
#X connect 14 0 27 0;
#X connect 15 0 27 0;
#X connect 16 0 27 0;
#X connect 17 0 27 0;
#X connect 18 0 27 0;
#X connect 19 0 27 0;
#X connect 20 0 27 0;
#X connect 21 0 27 0;
#X connect 22 0 27 0;
#X connect 23 0 27 0;
#X connect 24 0 27 0;
#X connect 25 0 27 0;
#X connect 26 0 27 0;
#X connect 27 0 28 0;
#X connect 29 0 30 0;
#X connect 30 0 0 0;
#X coords 0 -1 1 1 80 50 1 100 100;
