#N canvas -11 -11 1920 970 12;
#N canvas 0 50 450 250 (subpatch) 0;
#X array \$0scope 441 float 0;
#X coords 0 1 440 -1 200 140 1;
#X restore 100 135 graph;
#X obj 282 103 tgl 15 0 empty empty empty 17 7 0 10 -262144 -1 -1 1
1;
#X obj 322 133 switch~;
#X obj 282 33 loadbang;
#X msg 282 62 1;
#X obj 40 543 inlet~;
#X obj 40 672 outlet~;
#X text 96 673 <-bypass;
#X obj 96 621 tabwrite~ \$0scope;
#X obj 115 583 metro;
#X obj 104 291 hsl 155 18 10 1000 0 0 empty empty size -2 -8 0 10 -262144
-1 -1 6704 1;
#X msg 50 476 \; \$1scope resize \$2;
#X obj 322 300 loadbang;
#X obj 322 329 samplerate~;
#X obj 322 388 / 100;
#X floatatom 262 291 5 0 0 0 - - -;
#X text 46 728 Eito Murakami - EM_scope (05/22/21);
#X obj 101 321 i;
#X obj 101 358 t b f f;
#X obj 50 445 pack \$0 f;
#X obj 147 418 expr 10000*($f1/max($f2 \, 0.1));
#X text 370 417 <-avoiding "expr divide by zero detected";
#X obj 115 543 loadbang;
#X obj 322 358 t f f;
#X text 44 754 (Oscilloscope with a variable table size);
#X connect 1 0 2 0;
#X connect 3 0 4 0;
#X connect 4 0 1 0;
#X connect 5 0 6 0;
#X connect 5 0 8 0;
#X connect 9 0 8 0;
#X connect 10 0 17 0;
#X connect 12 0 13 0;
#X connect 13 0 23 0;
#X connect 14 0 10 0;
#X connect 17 0 15 0;
#X connect 17 0 18 0;
#X connect 18 0 19 0;
#X connect 18 1 19 1;
#X connect 18 2 20 0;
#X connect 19 0 11 0;
#X connect 20 0 9 1;
#X connect 22 0 9 0;
#X connect 23 0 14 0;
#X connect 23 1 20 1;
#X coords 0 -1 1 1 200 210 1 100 100;
