#N canvas -11 -11 1920 971 12;
#X obj 730 83 list fromsymbol;
#X obj 730 228 unpack f f f;
#X obj 866 344 expr if($f1 >=48 && $f1<=57 \, ($f1-48)*12+12 \, -10)
;
#X obj 770 315 sel 115;
#X obj 481 659 expr $f1+$f2+$f3;
#X msg 935 517 0;
#X obj 1237 344 expr if($f1 >=48 && $f1<=57 \, ($f1-48)*12+12 \, -10)
;
#X obj 1283 489 t f b;
#X msg 1315 517 0;
#X obj 762 141 list length;
#X obj 769 170 expr if($f1 >= 2 && $f1 <=3 \, 1 \, 0);
#X obj 730 112 t l l;
#X obj 730 199 spigot;
#X obj 770 257 t f f;
#X obj 481 474 spigot;
#X obj 802 286 expr if($f1 == 115 || ($f1 >=48 && $f1 <= 57) \, 1 \,
0);
#X obj 481 533 spigot;
#X obj 520 507 expr if($f2 == 3 && $f1 == 1 \, 0 \, 1);
#X msg 770 373 1;
#X msg 806 373 0;
#X obj 770 344 t b b;
#X obj 912 489 t f b b;
#X msg 975 517 1;
#X text 1021 170 <-Only accept 2 or 3 characters;
#X text 38 503 Close gate if the symbol is 3 characters long and the
second character is a number.;
#X text 1596 345 <-Convert ASCII to integer;
#X text 1180 287 <-Close gate if the second character is not 's' or
a number;
#X text 212 411 Convert ASCII to MIDI note number ->;
#X text 1350 516 <-Reset the 's' increment;
#X obj 481 618 spigot;
#X obj 520 590 expr if(($f1 == 4 || $f1 == 11) && $f2 == 1 \, 0 \,
1);
#X obj 481 562 t f f;
#X text 32 589 Close gate if the note is E or B and the second character
is 's'.;
#X obj 730 25 inlet;
#X obj 730 54 symbol;
#X obj 481 718 outlet;
#X obj 541 688 mtof;
#X obj 541 717 outlet;
#X text 595 716 <-freq;
#X text 420 718 MIDI->;
#X text 246 810 Eito Murakami - stom (08/17/21);
#X text 241 829 (Symbol to MIDI Converter);
#X obj 1237 373 moses 0;
#X obj 866 373 moses 0;
#N canvas -11 -11 1920 971 ASCII2MIDI 0;
#X obj 37 61 sel 67 68 69 70 71 65 66;
#X msg 37 90 0;
#X msg 77 90 2;
#X msg 117 90 4;
#X msg 157 90 5;
#X msg 197 90 7;
#X msg 237 90 9;
#X msg 277 90 11;
#X obj 37 133 f;
#X obj 37 35 inlet;
#X obj 37 162 outlet;
#X text 34 197 Convert ASCII to MIDI note number;
#X connect 0 0 1 0;
#X connect 0 1 2 0;
#X connect 0 2 3 0;
#X connect 0 3 4 0;
#X connect 0 4 5 0;
#X connect 0 5 6 0;
#X connect 0 6 7 0;
#X connect 1 0 8 0;
#X connect 2 0 8 0;
#X connect 3 0 8 0;
#X connect 4 0 8 0;
#X connect 5 0 8 0;
#X connect 6 0 8 0;
#X connect 7 0 8 0;
#X connect 8 0 10 0;
#X connect 9 0 0 0;
#X restore 481 411 pd ASCII2MIDI;
#X connect 0 0 11 0;
#X connect 1 0 44 0;
#X connect 1 1 13 0;
#X connect 1 2 6 0;
#X connect 2 0 43 0;
#X connect 3 0 20 0;
#X connect 3 1 2 0;
#X connect 4 0 35 0;
#X connect 4 0 36 0;
#X connect 5 0 4 1;
#X connect 5 0 30 1;
#X connect 6 0 42 0;
#X connect 7 0 4 2;
#X connect 7 1 8 0;
#X connect 8 0 4 1;
#X connect 8 0 30 1;
#X connect 9 0 10 0;
#X connect 9 0 17 1;
#X connect 10 0 12 1;
#X connect 11 0 12 0;
#X connect 11 1 9 0;
#X connect 12 0 1 0;
#X connect 13 0 3 0;
#X connect 13 1 15 0;
#X connect 14 0 16 0;
#X connect 15 0 14 1;
#X connect 16 0 31 0;
#X connect 17 0 16 1;
#X connect 18 0 4 1;
#X connect 18 0 30 1;
#X connect 19 0 17 0;
#X connect 20 0 18 0;
#X connect 20 1 19 0;
#X connect 21 0 4 2;
#X connect 21 1 5 0;
#X connect 21 2 22 0;
#X connect 22 0 17 0;
#X connect 29 0 4 0;
#X connect 30 0 29 1;
#X connect 31 0 29 0;
#X connect 31 1 30 0;
#X connect 33 0 34 0;
#X connect 34 0 0 0;
#X connect 36 0 37 0;
#X connect 42 1 7 0;
#X connect 43 1 21 0;
#X connect 44 0 14 0;
