#N canvas 35 241 454 293 12;
#X text 10 237 [Work In Progress] Eito Murakami - EM_stom (05/19/21)
;
#X obj 36 132 EM_stom;
#X floatatom 36 192 5 0 0 0 - - -;
#X msg 36 91 C4;
#X obj 36 62 loadbang;
#X msg 76 91 Ds4;
#X msg 116 91 Gs5;
#X text 152 90 <-inlet1: note name (symbol);
#X text 85 194 <-MIDI note number (float);
#X text 25 17 EM_stom is a note name to MIDI converter.;
#X connect 1 0 2 0;
#X connect 3 0 1 0;
#X connect 4 0 3 0;
#X connect 5 0 1 0;
#X connect 6 0 1 0;
