#N canvas 35 240 583 298 12;
#X text 28 248 Eito Murakami - EM_snapshot (05/22/21);
#X obj 32 130 EM_snapshot;
#X floatatom 32 190 5 0 0 0 - - -;
#X obj 32 89 osc~ 0.05;
#X text 108 88 <-inlet1: signal in (signal);
#X obj 226 139 snapshot~;
#X text 300 141 <-refer to snapshot~ for more details;
#X text 80 190 <- signal converted to float;
#X msg 464 228 \; pd dsp 1;
#X obj 464 195 loadbang;
#X text 22 19 EM_snapshot is a GUI abstraction using snapshot~ with
continuous bang~ at the block size of 64;
#X connect 1 0 2 0;
#X connect 3 0 1 0;
#X connect 9 0 8 0;
