#N canvas -11 -11 1920 970 12;
#X obj 39 364 r \$0freq;
#N canvas -11 -11 1920 970 phasor 0;
#X obj 65 160 phasor~;
#X obj 312 283 snapshot~;
#X obj 247 399 +;
#X obj 295 399 f;
#X obj 215 369 t f f;
#X obj 247 430 t f b;
#X obj 279 492 f;
#X obj 247 492 -;
#X obj 215 519 -;
#X obj 375 316 +;
#X text 311 493 new onset minus old onset;
#X text 380 520 back up phasor output by amount the onset advanced
;
#X text 378 533 (approximately zero but not exactly because of;
#X text 380 547 truncation error!);
#X text 381 566 convert phase back to range 0-1;
#X text 220 192 convert phase to range +/- 5000, f 16;
#X text 412 315 extrapolate snapshot of phase by one sample to sync
with next block, f 34;
#X obj 312 254 bang~;
#X obj 65 200 expr~ ($v1-0.5)*10000;
#X obj 297 464 r \$0onset_reset;
#X obj 265 370 r \$0onset_reset;
#X obj 393 262 r \$0freq;
#X obj 393 289 expr ($f1/$f2)*10000;
#X obj 530 233 loadbang;
#X obj 530 262 samplerate~;
#X text 361 427 new onset: phase plus old onset;
#X obj 215 548 expr ($f1/10000)+0.5;
#X obj 310 429 outlet;
#X obj 64 254 outlet~;
#X obj 65 101 inlet;
#X text 68 79 freq;
#X obj 65 130 lop~ 100;
#X obj 1008 393 r \$0samples;
#X obj 759 457 change;
#X obj 759 515 spigot;
#X obj 834 515 spigot;
#X obj 873 447 r \$0loop;
#X obj 828 479 ==;
#X obj 834 643 s \$0onset_reset;
#X obj 759 544 s \$0stop;
#X text 758 394 loop & stop alg;
#X text 1029 420 1: foward \; 2: backward;
#X obj 759 486 sel 1 2;
#X msg 834 614 0;
#X obj 894 515 spigot;
#X obj 912 584 r \$0samples;
#X obj 894 611 f;
#X obj 215 340 r \$0phase_reset;
#X msg 964 614 0;
#X obj 964 643 s \$0phase_reset;
#X obj 834 544 t b b;
#X obj 894 544 t b b;
#X obj 759 418 expr if($f1>$f2 \, 1 \, if($f1<0 \, 2 \, 0));
#X text 69 10 This subpatch is based on a Pd example B.16 long-varispeed.
At every bang~ \, the phasor~ phase is added to the onset and the onset
increase is subtracted from the phase.;
#X connect 0 0 18 0;
#X connect 1 0 9 0;
#X connect 2 0 3 0;
#X connect 2 0 5 0;
#X connect 2 0 27 0;
#X connect 2 0 52 0;
#X connect 3 0 2 1;
#X connect 4 0 8 0;
#X connect 4 1 2 0;
#X connect 5 0 6 1;
#X connect 5 0 7 0;
#X connect 5 1 6 0;
#X connect 6 0 7 1;
#X connect 7 0 8 1;
#X connect 8 0 26 0;
#X connect 9 0 4 0;
#X connect 17 0 1 0;
#X connect 18 0 1 0;
#X connect 18 0 28 0;
#X connect 19 0 6 1;
#X connect 20 0 2 1;
#X connect 21 0 22 0;
#X connect 22 0 9 1;
#X connect 23 0 24 0;
#X connect 24 0 22 1;
#X connect 26 0 0 1;
#X connect 29 0 31 0;
#X connect 31 0 0 0;
#X connect 32 0 52 1;
#X connect 33 0 42 0;
#X connect 34 0 39 0;
#X connect 35 0 50 0;
#X connect 36 0 35 1;
#X connect 36 0 37 0;
#X connect 36 0 44 1;
#X connect 37 0 34 1;
#X connect 42 0 34 0;
#X connect 42 0 35 0;
#X connect 42 1 34 0;
#X connect 42 1 44 0;
#X connect 43 0 38 0;
#X connect 44 0 51 0;
#X connect 45 0 46 1;
#X connect 46 0 38 0;
#X connect 47 0 4 0;
#X connect 48 0 49 0;
#X connect 50 0 48 0;
#X connect 50 1 43 0;
#X connect 51 0 48 0;
#X connect 51 1 46 0;
#X connect 52 0 33 0;
#X restore 39 393 pd phasor;
#N canvas -11 -11 1920 970 ctrl 0;
#X obj 47 343 expr $f1*$f2/1000000;
#X obj 184 291 loadbang;
#X obj 184 315 samplerate~;
#X obj 47 373 spigot;
#X msg 410 167 0;
#X obj 378 140 t b b;
#X msg 378 167 0;
#X obj 47 313 f;
#X msg 257 172 1;
#X obj 211 144 t b b b;
#X text 196 343 <-cycles per sec;
#X obj 47 402 s \$0freq;
#X obj 47 125 inlet;
#X text 46 104 speed (percent);
#X obj 378 113 inlet;
#X obj 211 115 inlet;
#X text 215 94 play;
#X text 381 94 stop;
#X obj 441 113 r \$0stop;
#X obj 434 336 spigot;
#X obj 494 336 spigot;
#X obj 434 474 s \$0onset_reset;
#X msg 434 445 0;
#X obj 512 415 r \$0samples;
#X obj 494 442 f;
#X msg 564 445 0;
#X obj 564 474 s \$0phase_reset;
#X obj 434 365 t b b;
#X obj 494 365 t b b;
#X obj 473 279 expr if($f1>0 \, 1 \, if($f1<0 \, 2 \, 0));
#X obj 473 308 == 1;
#X obj 533 308 == 2;
#X text 729 278 1: foward \; 2: backward;
#X obj 566 142 s \$0loop;
#X obj 566 113 inlet;
#X text 567 92 loop;
#X text 47 18 This subpatch resets the phase and onset based on the
playback direction when "play" is triggered.;
#X connect 0 0 3 0;
#X connect 1 0 2 0;
#X connect 2 0 0 1;
#X connect 3 0 11 0;
#X connect 4 0 0 0;
#X connect 5 0 6 0;
#X connect 5 1 4 0;
#X connect 6 0 3 1;
#X connect 7 0 0 0;
#X connect 8 0 3 1;
#X connect 9 0 7 0;
#X connect 9 1 19 0;
#X connect 9 1 20 0;
#X connect 9 2 8 0;
#X connect 12 0 7 0;
#X connect 12 0 29 0;
#X connect 14 0 5 0;
#X connect 15 0 9 0;
#X connect 18 0 5 0;
#X connect 19 0 27 0;
#X connect 20 0 28 0;
#X connect 22 0 21 0;
#X connect 23 0 24 1;
#X connect 24 0 21 0;
#X connect 25 0 26 0;
#X connect 27 0 25 0;
#X connect 27 1 22 0;
#X connect 28 0 25 0;
#X connect 28 1 24 0;
#X connect 29 0 30 0;
#X connect 29 0 31 0;
#X connect 30 0 19 1;
#X connect 31 0 20 1;
#X connect 34 0 33 0;
#X restore 43 324 pd ctrl;
#X obj 39 422 tabread4~ \$0l;
#X obj 149 422 tabread4~ \$0r;
#N canvas -11 -11 1920 970 load 0;
#X obj 34 85 openpanel;
#X obj 34 226 soundfiler;
#X obj 33 284 table \$0l;
#X obj 33 313 table \$0r;
#X obj 34 255 s \$0samples;
#X obj 227 218 s \$0stop;
#X obj 34 56 inlet;
#X obj 34 109 t b s;
#X obj 34 137 f \$0;
#X obj 34 166 pack f s;
#X msg 34 197 read -resize \$2 \$1l \$1r;
#X obj 227 189 b;
#X text 289 218 <- stop playback & mute master;
#X text 36 20 This subpatch loads a stereo sound file into tables.
;
#X connect 0 0 7 0;
#X connect 1 0 4 0;
#X connect 6 0 0 0;
#X connect 7 0 8 0;
#X connect 7 1 9 1;
#X connect 8 0 9 0;
#X connect 9 0 10 0;
#X connect 9 0 11 0;
#X connect 10 0 1 0;
#X connect 11 0 5 0;
#X restore 43 174 pd load;
#X obj 39 584 outlet~;
#X obj 149 584 outlet~;
#X obj 43 210 r \$0freq_arg;
#X obj 58 239 r \$0play_arg;
#X obj 367 127 bng 15 250 50 0 empty empty o 17 7 0 10 -262144 -1 -1
;
#X obj 307 127 bng 15 250 50 0 empty empty p 17 7 0 10 -262144 -1 -1
;
#X obj 337 127 bng 15 250 50 0 empty empty s 17 7 0 10 -262144 -1 -1
;
#X obj 427 127 tgl 15 0 empty empty l 17 7 0 10 -262144 -1 -1 0 1;
#X obj 74 268 r \$0stop_arg;
#X obj 89 297 r \$0loop_arg;
#X obj 43 145 r \$0open_arg;
#X obj 397 127 bng 15 250 50 0 empty empty r 17 7 0 10 -262144 -1 -1
;
#X floatatom 307 152 5 0 0 1 speed - -;
#X floatatom 387 152 5 0 0 1 rec_length - -;
#X obj 457 127 tgl 15 0 empty empty rl 17 7 0 10 -262144 -1 -1 0 1
;
#X obj 307 36 inlet;
#X text 310 15 play;
#X obj 307 65 b;
#X obj 337 398 s \$0stop_arg;
#X obj 307 427 s \$0play_arg;
#X obj 367 369 s \$0open_arg;
#X obj 397 340 s \$0rec_arg;
#X obj 427 311 s \$0loop_arg;
#X obj 457 282 s \$0recloop_arg;
#X obj 357 36 inlet;
#X obj 357 65 b;
#X text 360 16 stop;
#X obj 407 36 inlet;
#X obj 407 65 b;
#X text 412 16 rec;
#X obj 457 36 inlet;
#X text 458 16 speed;
#X obj 457 65 f;
#X obj 507 36 inlet;
#X obj 507 65 f;
#X text 512 16 rec_length;
#N canvas -11 -11 1920 970 rec 0;
#X obj 117 98 inlet~;
#X obj 227 98 inlet~;
#X text 126 78 left;
#X text 232 77 right;
#X obj 117 168 tabwrite~ \$0l;
#X obj 227 168 tabwrite~ \$0r;
#X obj 325 97 inlet;
#X msg 682 340 \; \$1l resize \$2 \; \$1r resize \$2;
#X obj 682 253 t b f;
#X obj 682 282 f \$0;
#X obj 682 311 pack f f;
#X obj 682 224 expr $f1*$f2*0.001;
#X obj 805 168 loadbang;
#X obj 805 197 samplerate~;
#X text 325 76 trigger;
#X obj 682 195 f;
#X obj 443 214 del;
#X obj 443 312 s \$0play_arg;
#X obj 731 253 s \$0samples;
#X obj 482 256 r \$0recloop_arg;
#X obj 443 283 spigot;
#X obj 700 135 r \$0reclength_arg;
#X text 819 254 <-update the sample size;
#X text 794 358 <-resize tables;
#X text 813 225 <-convert reclength(ms) to samples;
#X obj 399 153 s \$0stop;
#X text 463 151 <-stop playback & mute master;
#X text 202 313 trigger "play" if recloop is on->;
#X text 122 24 This subpatch records the incoming signals into tables
and resizes them based on the reclength.;
#X obj 325 126 t b b b b b;
#X obj 343 240 del;
#X obj 361 214 - 50;
#X obj 343 269 s \$0recenv;
#X text 10 270 apply a 50ms fade at the end of a recording ->;
#X connect 0 0 4 0;
#X connect 1 0 5 0;
#X connect 6 0 29 0;
#X connect 8 0 9 0;
#X connect 8 1 10 1;
#X connect 9 0 10 0;
#X connect 10 0 7 0;
#X connect 11 0 8 0;
#X connect 11 0 18 0;
#X connect 12 0 13 0;
#X connect 13 0 11 1;
#X connect 15 0 11 0;
#X connect 15 0 16 1;
#X connect 15 0 31 0;
#X connect 16 0 20 0;
#X connect 19 0 20 1;
#X connect 20 0 17 0;
#X connect 21 0 15 1;
#X connect 29 0 5 0;
#X connect 29 0 4 0;
#X connect 29 1 30 0;
#X connect 29 2 16 0;
#X connect 29 3 15 0;
#X connect 29 4 25 0;
#X connect 30 0 32 0;
#X connect 31 0 30 1;
#X restore 44 108 pd rec;
#X obj 487 253 s \$0freq_arg;
#X obj 517 224 s \$0reclength_arg;
#X obj 578 68 loadbang;
#X msg 578 97 100;
#X obj 83 81 r \$0rec_arg;
#X obj 44 23 inlet~;
#X obj 64 52 inlet~;
#X obj 487 127 tgl 15 0 empty empty win 17 7 0 10 -262144 -1 -1 0 1
;
#X msg 619 97 1000;
#N canvas -11 -11 1920 970 env 0;
#X obj 28 116 inlet~;
#X obj 28 175 *~;
#X obj 148 146 vline~;
#X obj 88 116 inlet~;
#X obj 88 175 *~;
#X obj 28 204 outlet~;
#X obj 88 204 outlet~;
#X obj 310 15 r \$0stop;
#X obj 148 15 r \$0play_arg;
#X obj 382 15 r \$0stop_arg;
#X obj 148 100 pack 1 f;
#X obj 201 73 * 10;
#X obj 258 100 pack 0 f;
#X obj 201 44 r \$0window;
#X text 331 101 <-fade if window is on;
#X connect 0 0 1 0;
#X connect 1 0 5 0;
#X connect 2 0 4 1;
#X connect 2 0 1 1;
#X connect 3 0 4 0;
#X connect 4 0 6 0;
#X connect 7 0 12 0;
#X connect 8 0 10 0;
#X connect 9 0 12 0;
#X connect 10 0 2 0;
#X connect 11 0 10 1;
#X connect 11 0 12 1;
#X connect 12 0 2 0;
#X connect 13 0 11 0;
#X restore 39 506 pd env;
#X text 95 504 <-mute master at "stop";
#N canvas -11 -11 1920 970 windowl 0;
#X obj 64 87 inlet~;
#X obj 64 286 *~;
#X obj 276 125 r \$0samples;
#X obj 139 89 inlet;
#X text 69 66 audio;
#X text 137 67 index (onset);
#X obj 64 315 outlet~;
#X obj 82 198 *~ 100;
#X obj 82 224 dbtorms~;
#X text 59 14 This subpatch applies a window to the loop.;
#X obj 471 126 r \$0window;
#X obj 82 258 lop~ 100;
#X obj 82 154 expr if ($f3==0 \, 1 \, if($f1<500 \, $f1/500 \, if($f1>$f2-500
\, ($f2-$f1)/500 \, 1)));
#X text 515 163 <-window size: 500samples;
#X connect 0 0 1 0;
#X connect 1 0 6 0;
#X connect 2 0 12 1;
#X connect 3 0 12 0;
#X connect 7 0 8 0;
#X connect 8 0 11 0;
#X connect 10 0 12 2;
#X connect 11 0 1 1;
#X connect 12 0 7 0;
#X restore 39 461 pd windowl;
#N canvas -11 -11 1920 970 windowr 0;
#X obj 64 87 inlet~;
#X obj 64 286 *~;
#X obj 276 125 r \$0samples;
#X obj 139 89 inlet;
#X text 69 66 audio;
#X text 137 67 index (onset);
#X obj 64 315 outlet~;
#X obj 82 198 *~ 100;
#X obj 82 224 dbtorms~;
#X text 59 14 This subpatch applies a window to the loop.;
#X obj 471 126 r \$0window;
#X obj 82 258 lop~ 100;
#X obj 82 154 expr if ($f3==0 \, 1 \, if($f1<500 \, $f1/500 \, if($f1>$f2-500
\, ($f2-$f1)/500 \, 1)));
#X text 515 163 <-window size: 500samples;
#X connect 0 0 1 0;
#X connect 1 0 6 0;
#X connect 2 0 12 1;
#X connect 3 0 12 0;
#X connect 7 0 8 0;
#X connect 8 0 11 0;
#X connect 10 0 12 2;
#X connect 11 0 1 1;
#X connect 12 0 7 0;
#X restore 149 461 pd windowr;
#X text 233 463 <-apply a window to a loop;
#X obj 487 196 s \$0window;
#X text 39 645 Eito Murakami - EM_sampler (06/20/21);
#N canvas -11 -11 1920 970 recenv 0;
#X obj 28 56 inlet~;
#X obj 28 115 *~;
#X obj 148 86 vline~;
#X obj 88 56 inlet~;
#X obj 88 115 *~;
#X obj 28 144 outlet~;
#X obj 88 144 outlet~;
#X obj 148 28 r \$0recenv;
#X msg 148 57 1 \, 0 50 \, 1 50 50;
#X obj 292 28 loadbang;
#X msg 292 57 1;
#X connect 0 0 1 0;
#X connect 1 0 5 0;
#X connect 2 0 4 1;
#X connect 2 0 1 1;
#X connect 3 0 4 0;
#X connect 4 0 6 0;
#X connect 7 0 8 0;
#X connect 8 0 2 0;
#X connect 9 0 10 0;
#X connect 10 0 2 0;
#X restore 39 545 pd recenv;
#X text 113 543 <-apply a 50ms fade at the end of a recording;
#X text 36 669 (Single buffer stereo sampler with variable playback
speed.);
#X connect 0 0 1 0;
#X connect 1 0 3 0;
#X connect 1 0 4 0;
#X connect 1 1 3 1;
#X connect 1 1 4 1;
#X connect 1 1 54 1;
#X connect 1 1 55 1;
#X connect 3 0 54 0;
#X connect 4 0 55 0;
#X connect 8 0 2 0;
#X connect 9 0 2 1;
#X connect 10 0 26 0;
#X connect 11 0 25 0;
#X connect 12 0 24 0;
#X connect 13 0 28 0;
#X connect 14 0 2 2;
#X connect 15 0 2 3;
#X connect 16 0 5 0;
#X connect 17 0 27 0;
#X connect 18 0 43 0;
#X connect 19 0 44 0;
#X connect 20 0 29 0;
#X connect 21 0 23 0;
#X connect 23 0 11 0;
#X connect 30 0 31 0;
#X connect 31 0 12 0;
#X connect 33 0 34 0;
#X connect 34 0 17 0;
#X connect 36 0 38 0;
#X connect 38 0 18 0;
#X connect 39 0 40 0;
#X connect 40 0 19 0;
#X connect 45 0 46 0;
#X connect 45 0 51 0;
#X connect 46 0 18 0;
#X connect 47 0 42 2;
#X connect 48 0 42 0;
#X connect 49 0 42 1;
#X connect 50 0 57 0;
#X connect 51 0 19 0;
#X connect 52 0 59 0;
#X connect 52 1 59 1;
#X connect 54 0 52 0;
#X connect 55 0 52 1;
#X connect 59 0 6 0;
#X connect 59 1 7 0;
#X coords 0 -1 1 1 225 80 1 300 100;
