#N canvas -11 -11 1920 971 12;
#X obj 286 45 loadbang;
#X obj 286 74 f \$1;
#X obj 98 64 inlet~;
#X text 146 64 fundamental freq;
#X obj 98 93 clip~ 0 20000;
#X obj 98 142 *~;
#X obj 160 211 expr~ if($v1>$f2/2 \, 0 \, 1);
#X obj 332 153 loadbang;
#X obj 332 182 samplerate~;
#X obj 286 103 expr ($f1+1)*2 - 1;
#X text 418 103 <-harmonic number;
#X obj 98 211 osc~;
#X obj 98 250 *~;
#X text 343 211 <-anti-alias;
#X obj 98 299 *~;
#X obj 286 271 expr 1/pow(max($f1 \, 1) \, 2);
#X text 475 273 <- relative amplitude = 1/harmonic number squared;
#X obj 98 407 outlet~;
#X obj 98 378 *~ 0.8;
#X text 1116 117 center_frequency;
#X obj 1068 117 inlet~;
#X obj 1260 116 inlet~;
#X text 1310 117 width;
#X obj 1068 146 clip~ 0 20000;
#X obj 1260 145 clip~ 1 50;
#X obj 1068 175 ftom~;
#X obj 878 216 expr~ exp(-1*(pow($v1-$v2 \, 2))/(2*pow(max($v3 \, 1)
\, 2)));
#X obj 878 187 ftom~;
#X obj 98 349 *~;
#X obj 878 254 clip~ 0 1;
#X obj 878 283 lop~ 100;
#X text 1276 216 <-implement the Gaussian function;
#X text 100 450 Eito Murakami - EM_trianglevoice (12/08/21);
#X text 96 477 (Triangle Wave Harmonic Generator with a Band-pass Filter
based on the Gaussian Curve);
#X obj 1068 59 loadbang;
#X obj 1068 88 f \$2;
#X obj 1260 59 loadbang;
#X obj 1260 88 f \$3;
#X connect 0 0 1 0;
#X connect 1 0 9 0;
#X connect 2 0 4 0;
#X connect 4 0 5 0;
#X connect 5 0 6 0;
#X connect 5 0 11 0;
#X connect 5 0 27 0;
#X connect 6 0 12 1;
#X connect 7 0 8 0;
#X connect 8 0 6 1;
#X connect 9 0 5 1;
#X connect 9 0 15 0;
#X connect 11 0 12 0;
#X connect 12 0 14 0;
#X connect 14 0 28 0;
#X connect 15 0 14 1;
#X connect 18 0 17 0;
#X connect 20 0 23 0;
#X connect 21 0 24 0;
#X connect 23 0 25 0;
#X connect 24 0 26 2;
#X connect 25 0 26 1;
#X connect 26 0 29 0;
#X connect 27 0 26 0;
#X connect 28 0 18 0;
#X connect 29 0 30 0;
#X connect 30 0 28 1;
#X connect 34 0 35 0;
#X connect 35 0 20 0;
#X connect 36 0 37 0;
#X connect 37 0 21 0;
