#N canvas 148 156 874 663 12;
#X obj 47 183 hsl 128 15 1 20000 1 0 empty empty empty -2 -8 0 10 -262144
-1 -1 8858 1;
#X floatatom 44 208 6 0 0 0 - - -;
#X obj 161 286 hsl 128 15 1 20000 1 0 empty empty empty -2 -8 0 10
-262144 -1 -1 8858 1;
#X floatatom 158 311 5 0 0 0 - - -;
#X obj 275 393 hsl 128 15 1 50 0 0 empty empty empty -2 -8 0 10 -262144
-1 -1 2333 1;
#X floatatom 272 418 5 0 0 0 - - -;
#X obj 44 569 *~;
#X obj 44 598 dac~;
#X obj 65 521 hsl 128 15 0 1 0 0 empty empty volume -2 -8 0 10 -262144
-1 -1 0 1;
#X obj 62 541 lop~ 100;
#X msg 488 612 \; pd dsp 1;
#X obj 488 579 loadbang;
#X text 22 632 Eito Murakami - EM_trianglevoice (12/08/21);
#X text 182 180 <-inlet1: fundamental frequency (signal \, 0-20 \,
000);
#X obj 44 455 clone EM_trianglevoice 50 1000 10;
#X text 411 390 <-inlet3 & argument2: band-pass filter width (signal
\, 1-50);
#X text 297 283 <-inlet2 & argument1: band-pass filter center frequency
(signal \, 0-20 \, 000);
#X obj 44 236 lop~ 100;
#X obj 44 125 loadbang;
#X msg 44 154 1000;
#X obj 158 228 loadbang;
#X msg 158 257 1000;
#X obj 272 335 loadbang;
#X msg 272 364 10;
#X text 32 17 EM_trianglevoice is an abstraction for the Pd clone object
to generate a triangle wave. Each instance of the abstraction inside
the clone object generates a harmonic component. A band-pass filter
is implemented based on the Gaussian function \, which dynamically
attenuates the relative amplitude of each harmonic component.;
#X connect 0 0 1 0;
#X connect 1 0 17 0;
#X connect 2 0 3 0;
#X connect 3 0 14 1;
#X connect 4 0 5 0;
#X connect 5 0 14 2;
#X connect 6 0 7 0;
#X connect 6 0 7 1;
#X connect 8 0 9 0;
#X connect 9 0 6 1;
#X connect 11 0 10 0;
#X connect 14 0 6 0;
#X connect 17 0 14 0;
#X connect 18 0 19 0;
#X connect 19 0 0 0;
#X connect 20 0 21 0;
#X connect 21 0 2 0;
#X connect 22 0 23 0;
#X connect 23 0 4 0;
